<?xml version="1.0" standalone="no"?>
<!DOCTYPE svg PUBLIC "-//W3C//DTD SVG 20010904//EN"
 "http://www.w3.org/TR/2001/REC-SVG-20010904/DTD/svg10.dtd">
<svg version="1.0" xmlns="http://www.w3.org/2000/svg"
 width="512.000000pt" height="512.000000pt" viewBox="0 0 512.000000 512.000000"
 preserveAspectRatio="xMidYMid meet">

<g transform="translate(0.000000,512.000000) scale(0.100000,-0.100000)"
fill="#000000" stroke="none">
<path d="M710 5101 c-325 -69 -578 -304 -677 -628 -23 -77 -26 -105 -27 -233
0 -111 4 -161 18 -214 84 -315 299 -542 606 -641 73 -24 106 -29 240 -33 l155
-4 250 -204 c222 -181 254 -204 286 -204 58 0 68 20 108 222 l37 182 87 17
c110 22 146 34 232 77 102 50 182 111 261 195 111 120 188 269 220 426 25 126
16 317 -21 431 -98 305 -318 515 -630 603 -53 14 -114 21 -247 24 -97 3 -188
3 -202 -1 -15 -4 -33 -20 -42 -38 -15 -29 -15 -34 0 -64 9 -20 25 -35 38 -38
13 -3 102 -7 198 -9 145 -4 187 -8 245 -27 208 -66 361 -198 456 -394 55 -113
72 -202 67 -344 -9 -203 -71 -345 -213 -487 -128 -128 -265 -193 -451 -215
-48 -5 -93 -15 -102 -22 -24 -21 -38 -65 -63 -200 -12 -71 -25 -128 -28 -128
-3 0 -99 76 -213 169 -113 92 -217 171 -230 175 -13 3 -82 6 -154 6 -200 0
-332 42 -480 154 -294 221 -370 657 -169 971 78 123 208 233 340 288 98 41
199 57 358 57 130 0 145 2 165 20 14 14 22 33 22 55 0 22 -8 41 -22 55 -20 18
-34 20 -177 19 -109 0 -181 -6 -241 -18z"/>
<path d="M3686 4614 c-223 -40 -506 -182 -506 -253 0 -25 50 -81 72 -81 14 0
27 7 123 61 163 93 295 130 490 137 105 3 162 0 228 -12 381 -72 689 -336 816
-700 93 -265 76 -553 -47 -809 -107 -224 -274 -391 -499 -499 -159 -77 -266
-100 -453 -101 -167 -1 -250 13 -394 67 -38 14 -82 26 -100 26 -17 -1 -139
-27 -271 -59 -153 -37 -241 -54 -243 -47 -1 6 22 114 52 239 30 125 52 235 49
245 -3 9 -27 62 -54 117 -119 243 -142 536 -62 790 31 99 91 220 151 304 31
45 45 73 44 95 -1 53 -62 83 -112 56 -26 -14 -123 -163 -165 -252 -155 -337
-155 -711 2 -1040 l46 -97 -62 -258 c-65 -272 -70 -315 -46 -350 29 -41 64
-38 374 37 l294 71 88 -30 c151 -51 238 -65 404 -65 167 0 257 14 403 65 624
218 958 906 746 1537 -119 356 -417 649 -780 767 -167 54 -412 71 -588 39z"/>
<path d="M632 4510 c-30 -28 -29 -80 1 -108 l23 -22 608 0 607 0 24 25 c32 31
32 69 0 100 l-24 25 -609 0 c-598 0 -609 0 -630 -20z"/>
<path d="M3925 4116 c-13 -13 -27 -37 -30 -53 -29 -134 -82 -257 -142 -330
-43 -54 -71 -56 -124 -9 -47 43 -75 49 -227 44 -131 -3 -151 -11 -196 -72 -20
-26 -21 -42 -24 -354 -3 -326 -3 -328 20 -371 37 -70 68 -81 226 -81 146 0
189 11 220 58 14 22 20 24 65 18 35 -5 58 -15 78 -35 15 -16 49 -39 76 -52 47
-24 53 -24 329 -24 l281 0 35 27 c66 51 68 60 68 407 0 291 -1 314 -20 351
-34 67 -70 84 -185 88 l-100 4 0 96 c0 116 -16 154 -95 225 -89 81 -208 110
-255 63z m161 -179 c31 -28 37 -41 42 -85 3 -33 -1 -69 -12 -101 -24 -73 -21
-113 10 -142 24 -23 33 -24 165 -27 l139 -4 0 -289 0 -289 -230 0 c-250 0
-274 4 -320 55 -34 37 -72 55 -117 55 -89 0 -83 -15 -83 221 l0 209 28 0 c102
1 218 134 286 330 15 41 29 81 31 88 7 20 23 14 61 -21z m-556 -607 l0 -290
-100 0 -100 0 0 290 0 290 100 0 100 0 0 -290z"/>
<path d="M665 4073 c-36 -9 -55 -34 -55 -73 0 -74 -37 -70 653 -70 l616 0 20
26 c27 35 26 57 -3 91 l-24 28 -594 1 c-326 1 -602 0 -613 -3z"/>
<path d="M1190 2720 c-553 -78 -1011 -485 -1146 -1018 -34 -134 -47 -260 -41
-392 16 -342 147 -647 383 -890 195 -201 411 -323 688 -388 98 -23 132 -26
291 -26 160 0 193 3 292 26 275 65 495 189 689 389 182 189 300 411 356 672
31 146 31 398 0 544 -57 263 -174 483 -358 673 -194 200 -414 324 -683 386
-120 28 -358 40 -471 24z m415 -165 c239 -50 442 -160 616 -334 175 -175 283
-375 336 -621 24 -115 24 -353 0 -466 -48 -225 -151 -430 -294 -585 l-56 -60
-22 69 c-51 161 -152 241 -389 309 -56 16 -104 36 -110 45 -8 14 3 29 62 84
123 113 208 252 231 379 14 73 14 277 1 369 -23 153 -87 290 -182 386 -326
328 -875 193 -1017 -250 -30 -97 -41 -180 -41 -330 0 -241 48 -357 214 -525
76 -77 96 -103 89 -114 -5 -8 -54 -28 -109 -43 -239 -68 -355 -166 -398 -335
l-12 -45 -57 62 c-139 150 -234 331 -288 550 -20 82 -23 119 -23 270 1 163 3
183 32 292 57 219 160 398 321 559 202 202 419 308 726 353 62 9 293 -3 370
-19z m-96 -417 c117 -39 217 -130 270 -242 29 -61 57 -163 48 -172 -2 -3 -29
18 -60 46 -59 54 -109 80 -154 80 -15 0 -70 -11 -121 -25 -51 -14 -109 -25
-127 -25 -18 0 -76 11 -127 25 -51 14 -106 25 -121 25 -45 0 -95 -26 -154 -80
-31 -28 -58 -49 -60 -46 -10 10 20 119 48 176 107 213 340 313 558 238z m-289
-463 c121 -31 166 -31 295 1 l105 26 54 -49 c30 -27 79 -60 110 -74 l56 -24 0
-60 c0 -136 -50 -244 -170 -365 -114 -115 -235 -166 -352 -149 -70 11 -166 62
-241 130 -121 109 -187 242 -187 378 l0 67 38 13 c46 17 107 59 146 100 17 17
35 31 40 31 6 0 54 -11 106 -25z m25 -831 c64 -19 176 -19 240 0 l50 16 32
-38 c18 -20 32 -39 33 -42 0 -4 -206 -127 -231 -138 -5 -2 -219 118 -238 134
-2 2 59 84 63 84 1 0 24 -7 51 -16z m-121 -238 c98 -58 192 -108 208 -111 53
-12 90 3 273 110 99 58 185 105 193 105 22 0 114 -42 159 -72 53 -36 89 -109
98 -199 l7 -67 -43 -29 c-100 -69 -237 -126 -389 -164 -136 -33 -393 -33 -525
-1 -150 37 -298 99 -394 165 l-43 30 6 66 c9 91 45 163 103 202 40 28 132 68
158 69 6 0 91 -47 189 -104z"/>
<path d="M4060 1900 c-258 -30 -494 -165 -650 -371 -61 -81 -128 -209 -151
-286 -11 -40 -18 -46 -196 -154 -192 -118 -221 -145 -209 -195 9 -35 30 -51
236 -177 l185 -113 46 -87 c58 -108 111 -178 199 -261 284 -267 710 -330 1065
-156 499 244 683 864 399 1342 -53 89 -195 242 -275 296 -188 127 -429 187
-649 162z m310 -171 c157 -40 317 -144 423 -274 58 -71 129 -215 152 -304 50
-198 17 -428 -87 -606 -53 -91 -192 -230 -283 -283 -134 -78 -303 -119 -456
-109 -114 7 -196 29 -304 82 -165 80 -289 205 -371 373 -51 104 -38 93 -276
238 -54 32 -98 62 -98 65 0 4 62 44 137 90 75 46 145 91 154 100 9 9 27 47 39
85 71 217 208 380 400 478 184 94 370 115 570 65z"/>
<path d="M3857 1353 c-68 -23 -130 -82 -169 -160 -28 -58 -32 -75 -32 -148 0
-73 4 -90 32 -148 28 -55 61 -92 238 -263 183 -177 209 -198 239 -198 30 0 56
21 239 198 177 170 210 207 238 263 28 58 32 75 32 148 0 73 -4 90 -32 148
-71 143 -210 207 -356 163 -27 -8 -64 -26 -85 -39 l-36 -24 -35 24 c-75 51
-184 66 -273 36z m159 -148 c20 -8 52 -28 70 -45 59 -51 99 -51 159 1 115 101
239 68 276 -73 10 -36 10 -55 -1 -94 -12 -44 -30 -65 -184 -215 l-170 -167
-163 156 c-89 85 -170 171 -180 191 -24 49 -23 126 3 176 40 76 112 103 190
70z"/>
</g>
</svg>
