<?xml version="1.0" standalone="no"?>
<!DOCTYPE svg PUBLIC "-//W3C//DTD SVG 20010904//EN"
 "http://www.w3.org/TR/2001/REC-SVG-20010904/DTD/svg10.dtd">
<svg version="1.0" xmlns="http://www.w3.org/2000/svg"
 width="512.000000pt" height="512.000000pt" viewBox="0 0 512.000000 512.000000"
 preserveAspectRatio="xMidYMid meet">

<g transform="translate(0.000000,512.000000) scale(0.100000,-0.100000)"
fill="#000000" stroke="none">
<path d="M2335 5106 c-100 -24 -205 -100 -261 -188 -13 -20 -32 -64 -44 -97
-19 -56 -20 -85 -20 -406 l0 -346 25 -24 c13 -14 31 -25 39 -25 24 0 64 21 73
39 4 9 10 174 13 366 6 399 5 393 96 474 65 57 119 71 280 71 l132 0 4 -93 c3
-85 6 -97 32 -131 55 -73 69 -76 439 -76 273 0 334 3 364 15 82 35 113 90 113
205 l0 80 133 0 c174 0 222 -14 292 -83 71 -71 85 -117 85 -272 l0 -122 -43
-28 c-56 -38 -174 -151 -203 -196 -36 -57 -57 -144 -51 -207 7 -68 54 -165
101 -211 l36 -35 -65 -67 c-89 -92 -119 -159 -119 -261 0 -65 5 -86 33 -142
20 -42 48 -80 76 -103 l45 -37 -65 -67 c-86 -89 -109 -140 -110 -244 0 -71 4
-88 33 -147 20 -42 50 -82 79 -107 l45 -41 -52 -57 c-78 -85 -105 -149 -105
-248 1 -64 6 -91 26 -135 30 -65 93 -131 152 -159 50 -24 143 -44 169 -35 16
5 18 -1 18 -39 0 -73 -28 -136 -85 -194 -82 -81 -94 -83 -510 -83 -341 0 -353
-1 -379 -21 -33 -26 -36 -77 -5 -105 19 -17 43 -20 226 -24 l204 -5 -84 -83
c-129 -129 -251 -207 -414 -265 -99 -36 -206 -55 -385 -67 -221 -16 -270 -32
-368 -126 -31 -30 -61 -54 -66 -54 -11 0 -884 872 -884 883 0 5 19 34 43 65
58 77 73 102 99 164 20 49 22 75 28 348 l7 295 185 550 185 550 39 -3 c89 -7
186 -79 235 -174 42 -82 38 -151 -26 -443 -81 -365 -81 -370 48 -592 113 -195
138 -261 157 -419 15 -122 4 -203 -64 -458 -56 -214 -58 -235 -22 -266 24 -19
72 -17 95 4 11 10 23 34 28 54 l9 37 255 5 c272 5 281 7 293 55 7 29 -15 80
-39 89 -9 3 -118 6 -241 6 -123 0 -224 3 -224 8 0 4 12 50 25 102 36 134 47
261 35 373 -20 176 -51 262 -171 474 -45 79 -85 160 -90 181 -6 30 4 91 51
310 67 304 73 378 41 481 -52 169 -202 296 -379 323 -80 13 -109 7 -150 -27
-27 -23 -52 -89 -229 -618 l-198 -592 -5 -285 c-6 -310 -6 -314 -69 -402 -66
-94 -64 -92 -106 -78 -50 16 -125 14 -171 -5 -24 -10 -146 -127 -367 -352
-182 -186 -411 -419 -509 -519 -151 -153 -178 -185 -178 -211 0 -38 36 -73 77
-73 28 0 70 40 382 357 l351 358 560 -560 c308 -308 560 -565 560 -570 0 -6
-47 -57 -105 -115 -90 -89 -105 -109 -105 -137 0 -22 8 -38 26 -52 55 -43 59
-40 337 237 142 141 267 271 278 288 31 50 39 118 23 182 l-15 56 48 48 c74
75 104 85 288 98 88 6 196 18 240 25 162 28 344 105 492 207 91 63 232 200
287 281 l39 57 67 0 c131 0 246 47 329 135 83 88 121 184 121 311 l0 72 85 83
c113 110 147 176 147 282 0 100 -34 179 -108 246 l-53 48 30 29 c88 84 130
172 131 274 0 94 -31 168 -97 235 l-53 53 54 53 c32 31 68 81 87 119 27 55 32
75 32 140 0 65 -5 85 -32 140 -18 36 -48 80 -67 99 l-35 34 69 74 c48 52 75
91 90 131 25 64 29 154 11 219 -28 101 -133 201 -236 224 l-53 12 -4 141 c-3
134 -5 144 -35 209 -59 124 -176 220 -301 246 -78 16 -1539 14 -1607 -3z
m1135 -206 c0 -64 -2 -70 -22 -75 -13 -3 -158 -4 -323 -3 l-300 3 -3 73 -3 72
326 0 325 0 0 -70z m894 -573 c62 -48 86 -120 65 -195 -10 -36 -29 -62 -88
-120 -83 -81 -120 -102 -178 -102 -121 1 -210 123 -173 236 15 45 127 166 180
195 53 29 146 22 194 -14z m-76 -588 c76 -37 115 -124 92 -208 -14 -52 -123
-171 -184 -200 -144 -70 -297 55 -255 208 10 35 29 62 85 119 39 39 87 79 105
87 48 20 106 18 157 -6z m-14 -603 c77 -45 112 -157 73 -232 -20 -39 -158
-171 -191 -184 -137 -52 -281 87 -236 226 15 45 127 167 180 195 51 26 124 25
174 -5z m-42 -576 c78 -22 129 -88 130 -170 0 -68 -23 -109 -107 -189 -58 -55
-82 -71 -119 -79 -74 -16 -134 4 -179 58 -54 64 -60 152 -14 216 37 53 144
145 185 160 46 16 57 17 104 4z m-3054 -804 c39 -21 1050 -1036 1060 -1066 6
-15 6 -35 0 -50 -10 -28 -176 -200 -193 -200 -5 0 -262 252 -569 559 l-560
560 89 93 c73 76 119 114 143 118 2 0 15 -6 30 -14z"/>
<path d="M2860 4466 c-30 -7 -73 -22 -95 -33 -59 -31 -130 -110 -162 -178 -23
-51 -28 -73 -28 -145 0 -74 4 -93 31 -150 66 -140 279 -322 456 -390 92 -36
97 -35 233 33 108 53 201 124 286 215 111 121 151 230 129 350 -45 245 -299
376 -516 266 l-53 -27 -33 21 c-70 42 -166 57 -248 38z m160 -161 c14 -7 34
-23 45 -35 28 -31 73 -52 96 -45 11 4 40 24 65 46 25 21 57 42 72 45 15 3 33
7 40 10 28 8 110 -18 146 -47 79 -66 104 -179 58 -266 -51 -97 -195 -223 -326
-284 -66 -31 -68 -31 -109 -15 -162 61 -349 234 -377 349 -35 138 91 280 230
260 19 -3 46 -11 60 -18z"/>
<path d="M2686 3258 c-21 -30 -20 -71 3 -99 l19 -24 404 -3 c221 -2 418 0 436
3 66 12 95 82 52 125 -19 19 -33 20 -459 20 l-440 0 -15 -22z"/>
<path d="M2745 2911 c-66 -40 -70 -51 -73 -195 -3 -124 -2 -133 20 -166 46
-69 51 -70 453 -70 402 0 407 1 452 69 21 31 23 46 23 155 0 136 -12 169 -72
206 -31 19 -51 20 -403 20 -343 0 -372 -1 -400 -19z m725 -206 l0 -75 -325 0
-325 0 0 75 0 75 325 0 325 0 0 -75z"/>
<path d="M2745 2311 c-66 -40 -70 -51 -73 -195 -3 -124 -2 -133 20 -166 46
-69 51 -70 453 -70 402 0 407 1 452 69 21 31 23 46 23 155 0 136 -12 169 -72
206 -31 19 -51 20 -403 20 -343 0 -372 -1 -400 -19z m725 -206 l0 -75 -325 0
-325 0 0 75 0 75 325 0 325 0 0 -75z"/>
</g>
</svg>
